<?xml version="1.0" encoding="utf-8"?>
<!-- Generator: Adobe Illustrator 23.0.5, SVG Export Plug-In . SVG Version: 6.00 Build 0)  -->
<svg version="1.1" id="Layer_1" xmlns="http://www.w3.org/2000/svg" xmlns:xlink="http://www.w3.org/1999/xlink" x="0px" y="0px"
	 width="3000px" height="2000px" viewBox="0 0 3000 2000" style="enable-background:new 0 0 3000 2000;" xml:space="preserve">
<style type="text/css">
	.st0{fill:url(#SVGID_1_);}
	.st1{fill:url(#SVGID_2_);}
	.st2{fill:#D88119;}
	.st3{fill:url(#SVGID_3_);}
	.st4{fill:url(#SVGID_4_);}
	.st5{display:none;}
	.st6{display:inline;fill:url(#SVGID_5_);}
	.st7{display:inline;fill:url(#SVGID_6_);}
	.st8{fill:url(#SVGID_7_);}
	.st9{display:inline;fill:url(#SVGID_8_);}
	.st10{fill:#FFFFFF;}
	.st11{fill:#233862;}
	.st12{fill:#2B478B;}
	.st13{fill:#FFB27D;}
	.st14{fill:#D86713;}
	.st15{fill:#E2915A;}
	.st16{fill:#BA550F;}
	.st17{fill:#9B5129;}
	.st18{fill:#E5BD9E;}
	.st19{fill:#B27F5D;}
	.st20{fill:#916140;}
	.st21{fill:#C6916D;}
	.st22{fill:#B27D59;}
	.st23{fill:#006838;}
	.st24{fill:#B2443B;}
	.st25{fill:#EFA26F;}
	.st26{fill:#FFC197;}
	.st27{fill:#EFCBAB;}
	.st28{fill:#739AF0;}
	.st29{fill:#FCECDB;}
	.st30{fill:#82B378;}
	.st31{fill:#F99746;}
	.st32{fill:#2E3552;}
	.st33{font-family:'MyriadPro-Regular';}
	.st34{font-size:50px;}
	.st35{font-size:135px;}
	.st36{font-size:52px;}
	.st37{font-size:43.9735px;}
	.st38{fill:#231F20;}
	.st39{fill:none;stroke:#231F20;stroke-width:6;stroke-miterlimit:10;}
</style>
<symbol  id="Icon_3_-_Comments1" viewBox="-31 -457.8 736.9 449">
	
		<radialGradient id="SVGID_1_" cx="2566.8252" cy="28571.6484" r="20.9992" gradientTransform="matrix(1.4762 0 0 0.2143 -3789.1472 -6144.7451)" gradientUnits="userSpaceOnUse">
		<stop  offset="9.815951e-02" style="stop-color:#DFDCDB;stop-opacity:0.85"/>
		<stop  offset="1" style="stop-color:#FFFFFF;stop-opacity:0"/>
	</radialGradient>
	<ellipse class="st0" cx="0" cy="-21.8" rx="31" ry="4.5"/>
	<g>
		<g>
			
				<radialGradient id="SVGID_2_" cx="7179.5996" cy="-6791.0894" r="42.5212" gradientTransform="matrix(14.5226 0 0 9.5525 -103710.8516 64533.0352)" gradientUnits="userSpaceOnUse">
				<stop  offset="0" style="stop-color:#FFF588"/>
				<stop  offset="0.3132" style="stop-color:#FFF350"/>
				<stop  offset="1" style="stop-color:#FAA919"/>
			</radialGradient>
			<path class="st1" d="M402.1-371.3H125c-63.8,0-115.7,34.1-115.7,75.9v210.1C9.3-43.4,61.2-9.3,125-9.3h464.7
				c63.8,0,115.7-34.1,115.7-75.9v-210.1c0-41.6-51.7-75.7-115.1-75.9l-0.5,0V-457L402.1-371.3z"/>
			<path class="st2" d="M589.7-9.8c30.7,0,59.7-7.9,81.5-22.3c21.7-14.3,33.7-33.2,33.7-53.1v-210.1c0-19.9-11.9-38.7-33.5-53
				c-21.7-14.3-50.5-22.3-81.1-22.4l-1,0v-1v-84.5l-186.9,85.4l-0.2,0.1H402H125c-30.7,0-59.7,7.9-81.5,22.3
				c-21.7,14.3-33.7,33.2-33.7,53.1v210.1c0,20,12,38.9,33.7,53.1C65.3-17.7,94.2-9.8,125-9.8H589.7 M589.7-8.8H125
				C61.1-8.8,8.8-43.2,8.8-85.2v-210.1c0-42,52.3-76.4,116.2-76.4h277l188.3-86v86.1c63.6,0.2,115.6,34.5,115.6,76.4v210.1
				C705.9-43.2,653.6-8.8,589.7-8.8L589.7-8.8z"/>
		</g>
	</g>
</symbol>
<symbol  id="Icon_3_-_Comments2" viewBox="-31 -25.8 62 51.6">
	
		<radialGradient id="SVGID_3_" cx="2566.8252" cy="28574.2637" r="20.9992" gradientTransform="matrix(1.4762 0 0 0.2143 -3789.1472 -6144.7451)" gradientUnits="userSpaceOnUse">
		<stop  offset="9.815951e-02" style="stop-color:#DFDCDB;stop-opacity:0.85"/>
		<stop  offset="1" style="stop-color:#FFFFFF;stop-opacity:0"/>
	</radialGradient>
	<path class="st3" d="M31-21.3c0-2.5-13.9-4.5-31-4.5c-17.1,0-31,2-31,4.5c0,2.5,13.9,4.5,31,4.5C17.1-16.8,31-18.8,31-21.3z"/>
	<g>
		<g>
			
				<radialGradient id="SVGID_4_" cx="17.4323" cy="-11.3926" r="36.4851" gradientTransform="matrix(1 0 0 1 4.000000e-04 0)" gradientUnits="userSpaceOnUse">
				<stop  offset="0" style="stop-color:#FFF588"/>
				<stop  offset="0.3132" style="stop-color:#FFF350"/>
				<stop  offset="1" style="stop-color:#FAA919"/>
			</radialGradient>
			<path class="st4" d="M8.4-11.7l-0.1,0C5.6-12.6,2.8-13,0-13c-13,0-23.5,8.6-23.5,19.1C-23.5,16.7-13,25.3,0,25.3
				s23.5-8.6,23.5-19.1c0-4.1-1.6-8.1-4.6-11.4l-0.2-0.2l4.5-10.6L8.4-11.7z"/>
			<path class="st2" d="M0,24.8c12.7,0,23-8.4,23-18.6c0-4-1.6-7.9-4.5-11.1l-0.4-0.5L18.3-6l3.9-9.3l-13.6,4l-0.3,0.1l-0.3-0.1
				c-2.6-0.8-5.3-1.2-8.1-1.2c-12.7,0-23,8.4-23,18.6C-23,16.4-12.7,24.8,0,24.8 M0,25.8c-13.3,0-24-8.8-24-19.6
				c0-10.8,10.7-19.6,24-19.6c2.9,0,5.8,0.4,8.4,1.2L24-16.8L19.2-5.6c3,3.3,4.8,7.3,4.8,11.8C24,17,13.3,25.8,0,25.8L0,25.8z"/>
		</g>
		<g class="st5">
			<linearGradient id="SVGID_5_" gradientUnits="userSpaceOnUse" x1="-14.3766" y1="32.733" x2="6.2866" y2="-5.4701">
				<stop  offset="0" style="stop-color:#FFFFFF"/>
				<stop  offset="1" style="stop-color:#000000"/>
			</linearGradient>
			<path class="st6" d="M21.5,10c-2.2,7.9-11,13.8-21.5,13.8c-12.1,0-22-7.9-22-17.6c0-5.8,3.5-10.9,8.9-14.1C-11,1.5,3.4,9,21.5,10
				z"/>
		</g>
		<g class="st5">
			<linearGradient id="SVGID_6_" gradientUnits="userSpaceOnUse" x1="-6.3002" y1="31.781" x2="0.4284" y2="-1.1385">
				<stop  offset="0" style="stop-color:#FFFFFF"/>
				<stop  offset="1" style="stop-color:#000000"/>
			</linearGradient>
			<path class="st7" d="M-20,4.2c0,9.7,9.9,17.6,22,17.6c6.4,0,12.1-2.2,16.1-5.7c-4,4.6-10.6,7.7-18.1,7.7c-12.1,0-22-7.9-22-17.6
				c0-4.6,2.2-8.8,5.9-12C-18.6-3-20,0.5-20,4.2z"/>
		</g>
	</g>
</symbol>
<symbol  id="Star_-_Orange" viewBox="-24 -22.8 48 45.7">
	<g>
		
			<radialGradient id="SVGID_7_" cx="4.2091" cy="-13.9415" r="20.4943" gradientTransform="matrix(1 0 0 1 -5.000000e-04 0)" gradientUnits="userSpaceOnUse">
			<stop  offset="0" style="stop-color:#FFF588"/>
			<stop  offset="0.3132" style="stop-color:#FFF350"/>
			<stop  offset="1" style="stop-color:#FAA919"/>
		</radialGradient>
		<polygon class="st8" points="0,-14.5 -14.2,-21.9 -11.5,-6.1 -22.9,5 -7.1,7.3 0,21.7 7.1,7.3 22.9,5 11.5,-6.1 14.2,-21.9 		"/>
		<path class="st2" d="M0,20.6L6.5,7.4l0.2-0.5l0.5-0.1l14.6-2.1L11.3-5.6L10.9-6L11-6.5L13.5-21l-13,6.9L0-13.9l-0.5-0.2l-13-6.9
			L-11-6.5l0.1,0.5l-0.4,0.4L-21.9,4.7l14.6,2.1l0.5,0.1l0.2,0.5L0,20.6 M0,22.8l-7.4-15L-24,5.4l12-11.7l-2.8-16.5L0-15l14.8-7.8
			L12-6.3L24,5.4L7.4,7.8L0,22.8L0,22.8z"/>
	</g>
	<g class="st5">
		<linearGradient id="SVGID_8_" gradientUnits="userSpaceOnUse" x1="-5.1193" y1="25.3193" x2="4.5484" y2="-14.9636">
			<stop  offset="0" style="stop-color:#FFFFFF"/>
			<stop  offset="1" style="stop-color:#000000"/>
		</linearGradient>
		<path class="st9" d="M-9.9-5.6l-0.2-1l-0.4-2.6C-4.7-3.4,5,0.3,16,0.4L19.7,4L7.1,5.8L6.1,6L5.6,6.9L0,18.3L-5.6,6.9L-6.1,6
			l-1-0.2L-19.7,4l9.1-8.9L-9.9-5.6z"/>
	</g>
</symbol>
<g>
	<rect x="-0.6" y="1" class="st10" width="3000" height="2000"/>
	<g>
		<g>
			<g>
				<g>
					<g>
						<path class="st11" d="M1255.9,1539.2c0,0,2.5-19.7,8.4-31.4c5.9-11.7,43.1-4.3,43.1-4.3s7.5,6.4,9,36.2L1255.9,1539.2z"/>
						<path class="st11" d="M1128.9,1539c8.8-5.3,3.8-45.2,3.8-45.2s-40.8-32.6-46.4-7.6c-5.6,25-38.8,36.2-57.6,39.3
							c-13,2.1-17.1,9.3-18.3,13.6H1128.9z"/>
						<path class="st12" d="M1213.4,1249c-1.7,9.2-2.7,16.7-3,22c-3.8,74-62.3,243.1-72.7,247.1c-16.2,6.1-41.7-6.9-55-11.1
							c-5.5-1.8-9.3-7.3-8-13c29-133.1,39.6-324.8,43.5-438.3c2-57.2,11.8-96.7,11.8-96.7s142.6-38.1,143.5,10.1
							C1274.1,1011.7,1226.1,1178.7,1213.4,1249z"/>
						<path class="st11" d="M1213.4,1249l-95.3-193.3c2-57.2,11.8-96.7,11.8-96.7s142.6-38.1,143.5,10.1
							C1274.1,1011.7,1226.1,1178.7,1213.4,1249z"/>
						<path class="st12" d="M1181.7,969.3l75.4,546.5c0,0,33.1,8,58.9,1.6c0,0,22.1-290.6,20.2-360.9c-1.8-70.3,15.8-188-4-201
							C1312.3,942.4,1181.7,969.3,1181.7,969.3z"/>
						<g>
							<path class="st13" d="M936.2,697.1c4.5,12.2,3.4,14.3,11.6,17.8c9.4,4,13.3,9.6,13.3,9.6l7.6-4.4l9-5.2c0,0-0.2-1-0.7-2.6
								c-0.4-1.6-1.1-3.9-2-6.4c0,0-2.8-3.6-1.1-8c1.7-4.5,1.4-11.4-1.5-15.6c-2.9-4.2-10.2-11.6-11.9-11.3
								c-4.2,0.7,5.3,11.7,3.5,14.4c-1.6,2.4-2.4,1.9-2.8,1.7c0,0,0,0-0.1,0c-11.8-5.2-11.4-21.4-17.8-17.7
								C940.9,670.8,934.3,691.9,936.2,697.1z"/>
							<path class="st14" d="M1142.8,663.3c-23.1,38.5-56.8,95.7-73.4,110.3l-94.5-70.5c0,0-13.7,4.2-19.7,18
								c0,0,57.4,116.9,113.9,121.9c56.5,5,135.8-140.2,135.8-140.2l-19-37.4C1177.4,648.8,1152.4,647.3,1142.8,663.3z"/>
						</g>
						<path class="st14" d="M1342.5,932.9c0-0.6-0.1-1.2-0.1-1.8c-0.1-1.8-0.3-3.7-0.4-5.5c0-0.5-0.1-1.1-0.1-1.6
							c-0.3-4.6-0.6-9.2-0.9-13.7c0-0.5-0.1-1-0.1-1.5c-0.1-1.9-0.2-3.7-0.3-5.6c0-0.4,0-0.8-0.1-1.2c-0.1-2.3-0.2-4.5-0.4-6.8
							c0,0,0-0.1,0-0.1c-0.1-2.1-0.2-4.2-0.3-6.3c0-0.5,0-1-0.1-1.5c-0.1-1.8-0.2-3.6-0.2-5.4c0-0.4,0-0.7,0-1.1
							c-0.1-2.1-0.2-4.3-0.3-6.4c0-0.3,0-0.6,0-0.9c-0.1-1.8-0.1-3.5-0.2-5.3c0-0.6,0-1.2-0.1-1.8c-0.1-1.5-0.1-3-0.2-4.5
							c0-0.6,0-1.1-0.1-1.7c-0.1-1.8-0.1-3.6-0.2-5.4c-0.1-1.4-0.1-2.7-0.1-4.1c0-0.3,0-0.6,0-0.9c-0.2-7.1-0.5-14-0.7-20.7
							c0-0.1,0-0.2,0-0.3c-0.1-3.9-0.3-7.8-0.5-11.6c0-0.2,0-0.5,0-0.7c-0.1-1.6-0.1-3.1-0.2-4.7c0-0.4,0-0.8-0.1-1.2
							c-0.1-1.6-0.2-3.3-0.2-4.9c0-0.1,0-0.3,0-0.4c0-0.2,0-0.3,0-0.5c0.6-0.7,1.3-1.5,1.6-1.8c32.6-39.4,47.1-120,33.9-138.8
							c-21.5-30.7-90.1-42.4-90.1-42.4c0,10.2-20.1,22.8-38.5,24.3c0,0-1.1-15.5-1.1-15.5c-16.8,1.5-36.6,7.1-36.6,7.1l-13.8-20.3
							c0,0-0.2-2.6-28.1,6.7l7,19.7c-19.9,6.9-36.3,6.7-35.8,80.5c0.3,39.6-0.5,72.9-1.3,101c-0.8,31.2-1.9,55.9-3.1,75.3
							c-3.4,57.5-7.2,69.6-4.7,69.5c0,0,21.9,19.9,79.6,19.5c36.3-0.2,65.9-4.3,87.8-8.8c29.5-6.1,45.3-13.2,45.3-13.2
							c6.3-0.1,5-21.9,4.5-27.9C1342.9,937.5,1342.7,935.2,1342.5,932.9z"/>
						<path class="st13" d="M1209.3,615.3l-0.2,22.2c0,3,2,5.7,4.9,6.5c3.7,1,9.9,2.4,20.6,3.7c27.2,3.4,47.9-8.6,47.2-25.7
							c-2.5-13.2-5.2-22.3-5.3-33.3c-0.1-4.1,0.2-8.4,1-13.3l-52.8-1.1l-15.6,2.5L1209.3,615.3z"/>
						<path class="st15" d="M1209.1,577l0.2,38.3c5.6,2.6,11.9,4.2,19,4.2c24.3,0,40-17.8,48.2-30.7c-0.1-4.1,0.2-8.4,1-13.3
							l-52.8-1.1L1209.1,577z"/>
						<path class="st13" d="M1281.5,567c-6.1,33-48.7,31.9-67.1,29.8c-5.2-0.6-8.4-1.2-8.4-1.2c-5.8-1.6-9.1-10.8-10.6-22.8
							c-3-23.8,0.8-58.8,4.8-67.8c6.1-13.5,17.5-28,60.3-17.5C1303.4,498,1289.4,524.7,1281.5,567z"/>
						<path class="st14" d="M1336.6,804.8C1336.6,804.8,1336.6,804.8,1336.6,804.8C1336.6,804.9,1336.6,804.9,1336.6,804.8z"/>
						<g>
							<g>
								<path class="st11" d="M1140.1,640.5L1140.1,640.5c-1.2-0.9-1.4-2.6-0.5-3.8l6.4-8.5l4.3,3.3l-6.4,8.5
									C1143,641.1,1141.3,641.4,1140.1,640.5z"/>
								<path class="st12" d="M1144.3,635.4L1144.3,635.4c-2.5-1.9-3.1-5.4-1.3-8l36.5-52.9l13.4,10l-40.5,49.9
									C1150.3,636.8,1146.8,637.3,1144.3,635.4z"/>
								<path class="st11" d="M1204.6,580.8c-5.1,6.8-14.7,8.2-21.6,3.1c-6.8-5.1-8.2-14.7-3.1-21.6c5.1-6.8,14.7-8.2,21.6-3.1
									C1208.3,564.3,1209.7,573.9,1204.6,580.8z"/>
							</g>
							<path class="st13" d="M1190.3,619.3c0,0-6.1-49.6-22.4-40.6c-16.2,9.1-15.3,23.6-14.9,29c0.4,5.3,15,20.5,15,20.5
								L1190.3,619.3z"/>
						</g>
						<path class="st11" d="M1187,473.6c0,0,18.9-1.5,41.1-11.1c18.1-7.9,40.8,0.8,48.2,4.7c-0.2-1.2-0.7-2.8-1.8-4.5
							c0,0,3.3,2.4,3.8,5.6c0.3,0.3,0.5,0.4,0.4,0.5c0,0,3.8-0.7,6.2,0.4c0,0-1.7-0.2-2.3,0.8c-0.1,0.1-0.2,0.2-0.3,0.3
							c28.2,13.6,30.8,58.1,21.7,68.4c-10.9,12.4-24,40.3-24,40.3s-4.8-6.6-2.8-17.5c2-10.9-7.4-10.9-19.3-15.9s-2-18.8-12.4-27.3
							c-10.4-8.4-48.6-3.5-48.1-9.9C1183.4,503.4,1187,475.1,1187,473.6z"/>
						<g>
							<path class="st16" d="M1276.4,830.6c-7.8-1.2-15.3-5.6-22.5-12.3c-39.9-37.1-74.5-146.3-74.5-146.3
								c2.1,52.7,19.9,151.6,81.8,179.6l0,0c29.5-4.7,54.6-22,75.2-46.5C1324.7,818.2,1276.4,830.6,1276.4,830.6z"/>
						</g>
						<path class="st16" d="M1310.7,718.9c0,0-21.9,53.8-40.5,19C1270.2,737.9,1280.5,742,1310.7,718.9z"/>
						<path class="st14" d="M1163.7,624.3c0,0,13-7.6,27.4-8.2l10.7,16l-34.6,1.8L1163.7,624.3z"/>
						<path class="st16" d="M1134.2,803.9l1.5-105.8c0,0-12.1,140.2-66.5,145C1069.1,843,1092.8,849.2,1134.2,803.9z"/>
					</g>
					<path class="st17" d="M997.2,632.6l0.2-0.6c0.3-1-0.2-2.1-1.2-2.4c-1-0.3-2.1,0.2-2.4,1.2l-1.4,4.3l-1-0.3l0.2-0.7
						c0.4-1.2-0.3-2.4-1.4-2.8l-34.7-11.2c-1.2-0.4-2.4,0.3-2.8,1.4l-0.2,0.7l-0.8-0.3l1.4-4.3c0.3-1-0.2-2.1-1.2-2.4
						c-1-0.3-2.1,0.2-2.4,1.2l-0.2,0.6c-1.4-0.4-2.9,0.3-3.3,1.7l-5.7,17.6c-0.4,1.4,0.3,2.9,1.7,3.3l-0.2,0.6
						c-0.3,1,0.2,2.1,1.2,2.4c1,0.3,2.1-0.2,2.4-1.2l1.4-4.3l0.8,0.3l-0.2,0.7c-0.4,1.2,0.3,2.4,1.4,2.8L962,645l-7.2,22.3
						c-2.4,0.7-4.5,2.5-5.3,5l-15.8,48.9c-1.3,4,0.9,8.3,4.9,9.6c4,1.3,8.3-0.9,9.6-4.9l15.8-48.9c0.8-2.6,0.2-5.2-1.3-7.2l7.2-22.3
						l13.5,4.4c1.2,0.4,2.4-0.3,2.8-1.4l0.2-0.7l1,0.3l-1.4,4.3c-0.3,1,0.2,2.1,1.2,2.4c1,0.3,2.1-0.2,2.4-1.2l0.2-0.6
						c1.4,0.4,2.9-0.3,3.3-1.7l5.7-17.6C999.3,634.5,998.6,633,997.2,632.6z"/>
					<path class="st13" d="M960.9,686.9c0,0-4.1-13.8-1.2-15.8c2.9-2,14.3,10.5,14.8,16.6c0.6,6.1-9.2,7.9-9.2,7.9L960.9,686.9z"/>
				</g>
				<rect x="891.9" y="944.7" class="st18" width="21.1" height="595"/>
				<path class="st19" d="M944.2,1530.9h-84.6l0,0c0-5.6,4.5-10.1,10.1-10.1h64.5C939.6,1520.8,944.2,1525.3,944.2,1530.9
					L944.2,1530.9z"/>
				<path class="st20" d="M992.6,1539.8H811.1c-3.3,0-6.1-2.7-6.1-6.1l0,0c0-3.3,2.7-6.1,6.1-6.1h181.6c3.3,0,6.1,2.7,6.1,6.1l0,0
					C998.7,1537.1,996,1539.8,992.6,1539.8z"/>
				<g>
					<polygon class="st21" points="1073.6,991.1 822.8,991.1 731.3,897 982.1,897 					"/>
					<polygon class="st18" points="981.6,886.6 731.3,886.6 731.3,897 986.2,897 					"/>
					<polygon class="st17" points="1073.6,980.7 981.6,886.6 981.6,897 1073.6,991.1 					"/>
				</g>
				<path class="st17" d="M913,1090.8V944.7h-21.1v80.3C891.9,1025.1,913,1050.3,913,1090.8z"/>
			</g>
			<g>
				<g>
					<g>
						<path class="st22" d="M2011.9,1539.8l-1.7,0c-2.9,0-5-2.7-4.4-5.5L2222,587.2h30.5L2016,1536.6
							C2015.5,1538.5,2013.8,1539.8,2011.9,1539.8z"/>
					</g>
					<g>
						<path class="st22" d="M1625.5,1539.8l-1.7,0c-2.9,0-5-2.7-4.4-5.5l216.2-947.1h30.5l-236.5,949.4
							C1629.1,1538.5,1627.4,1539.8,1625.5,1539.8z"/>
					</g>
					<g>
						<g>
							<path class="st20" d="M1979.2,1535.5L1839,587.2h34.7l114.5,948.1c0.3,2.3-1.6,4.4-4,4.4h0
								C1981.7,1539.8,1979.6,1538,1979.2,1535.5z"/>
						</g>
						<path class="st20" d="M1839,587.2l-9.5,43l144.1,903c0.6,3.9,3.9,6.6,7.9,6.6h2.9L1839,587.2z"/>
						<g>
							<path class="st20" d="M2362.3,1535.5l-136.1-948.3h30.5l114.5,948.1c0.3,2.3-1.6,4.4-4,4.4h0
								C2364.7,1539.8,2362.7,1538,2362.3,1535.5z"/>
						</g>
						<path class="st20" d="M2226.3,587.2l-13.7,43l144.1,903c0.6,3.9,3.9,6.6,7.9,6.6h2.9L2226.3,587.2z"/>
						<polygon class="st20" points="2270.3,946.7 1886.1,946.7 1888.2,923.6 2272.4,923.6 						"/>
					</g>
					<polygon class="st19" points="1715.4,1153.2 1696.8,1153.2 1825.9,587.2 1839,587.2 					"/>
					<polygon class="st18" points="2121.9,1153.2 1685.1,1153.2 1815.9,587.2 2256.9,587.2 					"/>
					<path class="st19" d="M2124.6,1153.2h-461.7c-2.5,0-4.5-2-4.5-4.5v-12c0-2.5,2-4.5,4.5-4.5h461.7c2.5,0,4.5,2,4.5,4.5v12
						C2129.1,1151.1,2127.1,1153.2,2124.6,1153.2z"/>
					<path class="st21" d="M2078.8,1153.2h-451.6c-2.5,0-4.5-2-4.5-4.5v-12.1c0-2.5,2-4.5,4.5-4.5h451.6c2.5,0,4.5,2,4.5,4.5v12.1
						C2083.3,1151.2,2081.3,1153.2,2078.8,1153.2z"/>
					<path class="st18" d="M2162.6,637.2c0-1.5-1.2-2.7-2.7-2.7c-1.5,0-2.7,1.2-2.7,2.7c0,1.5,1.2,2.7,2.7,2.7
						C2161.4,639.9,2162.6,638.7,2162.6,637.2z"/>
					<path class="st18" d="M1865,637.2c0-1.5-1.2-2.7-2.7-2.7c-1.5,0-2.7,1.2-2.7,2.7c0,1.5,1.2,2.7,2.7,2.7
						C1863.8,639.9,1865,638.7,1865,637.2z"/>
				</g>
				<g>
					<g>
						
							<rect x="1447.7" y="531.7" transform="matrix(-1 -1.224647e-16 1.224647e-16 -1 3867.9666 1663.1611)" class="st23" width="972.6" height="599.7"/>
						<g>
							<path class="st22" d="M1435.3,1132.1H2421V519.2h-985.7V1132.1z M2407.8,1118.9h-959.4V532.4h959.4V1118.9z"/>
						</g>
					</g>
				</g>
				
					<rect x="2409.4" y="519.2" transform="matrix(-1 -1.224647e-16 1.224647e-16 -1 4835.9302 1651.2969)" class="st20" width="17.1" height="612.8"/>
				<path class="st20" d="M2092.8,1153.2h18.7l-6.2,24.8c-19.3,6.1-27.3,39.9-27.3,39.9L2092.8,1153.2z"/>
				<path class="st20" d="M1706.1,1153.2h18.7l-6.2,24.8c-19.3,6.1-27,39.9-27,39.9L1706.1,1153.2z"/>
			</g>
		</g>
		<rect x="311.4" y="1537" class="st24" width="2469.1" height="111.9"/>
		<g>
			<g>
				<path class="st25" d="M366.6,1452.6l-13.5,37.8c0,0-8.3,0.5-9.9,9.5c-1.6,9.1-2.3,59.1-2.3,59.1l-36.7-14.3
					c0.7-1.6,8-57.9,6.9-66.5c-1.1-8.6-13.5-22.8-2.7-40.4c5.9-9.6,5.5-21.3,3.9-30c-0.6-3.2-1.3-5.9-2-8.1c-0.3-1.1,0-2.2,0.6-3
					c0.7-0.8,1.9-1.3,3.1-1c3.1,0.8,7,2.7,10.2,7.3c2.3,3.3,2.8,9,4.2,14.6c5.6-5.5,18.8-5.2,24.7-3.2
					C363.2,1417.9,366.6,1452.6,366.6,1452.6z"/>
				<path class="st26" d="M313.3,1407.4l-1.1,0.4c-0.6-3.2-3.7-9.3-4.4-11.5c-0.3-1.1,1.9-0.9,2.8-0.2c0.5,0.3,1.3,1.4,1.6,1.9
					c0.9,1.6,2,3.9,2.7,5.9C315.3,1405.3,314.7,1406.8,313.3,1407.4z"/>
			</g>
			<g>
				<g>
					<path class="st27" d="M355.4,1497.1l-1.1,0.3c-3.6,1.1-7.1,0.2-7.7-2l-37.2-135.8l8.2-2.4l43,134.2
						C361.3,1493.4,358.9,1496,355.4,1497.1z"/>
				</g>
				<path class="st28" d="M402.9,1335.4L225.7,1388c-5,1.5-10.3-1.4-11.8-6.4L165.3,1218c-1.5-5,1.4-10.3,6.4-11.8l177.3-52.6
					c5-1.5,10.3,1.4,11.8,6.4l48.6,163.6C410.8,1328.6,407.9,1333.9,402.9,1335.4z"/>
				<path class="st29" d="M368.3,1336.3l-113,33.6c-17.6,5.2-36.2-4.9-41.4-22.5l-29.9-100.7c-5.2-17.6,4.9-36.2,22.5-41.5l113-33.6
					c17.6-5.2,36.2,4.9,41.4,22.5l29.9,100.7C396,1312.4,385.8,1331.1,368.3,1336.3z"/>
			</g>
			<g>
				<path class="st13" d="M355.5,1416.6l-27.2,13.4c-2.3,1.2-4.3,0.8-5.5-1.5l-2.2-4.2c-1.2-2.3-0.3-5.1,1.9-6.3l21.4-12.7
					c2.8-1.6,6.5-0.6,8.3,1.5C352.2,1406.8,360.1,1414.5,355.5,1416.6z"/>
				<path class="st13" d="M363.3,1429.3l-27.6,14.7c-3.6,1.9-8.1,0.5-10-3.1l0,0c-1.9-3.6-0.5-8.1,3.1-10l27.6-14.7
					c3.6-1.9,6.9-3.1,10,3.1l0,0C369.7,1424.1,366.9,1427.4,363.3,1429.3z"/>
				<path class="st13" d="M366.6,1441l-22.4,10.6c-3.1,1.6-6.3,1.4-8-1.7l0,0c-1.6-3.1-0.5-7,2.6-8.6l21.8-11.5
					c3.1-1.6,6.2-3.4,8.6,2.6l0,0C371.3,1436.5,369.7,1439.4,366.6,1441z"/>
				<path class="st13" d="M370.5,1451.2l-12.8,6.8c-2.7,1.4-6,0.4-7.4-2.3l0,0c-1.4-2.7-0.4-6,2.3-7.4l12.8-6.8
					c2.7-1.4,6-0.4,7.4,2.3l0,0C374.2,1446.4,373.2,1449.7,370.5,1451.2z"/>
				<path class="st26" d="M321.1,1421.6c1.6-1,3.7-2.3,5.6-3.1c1.3-0.5,2.9,0,3.5,1.3l1.9,3.7c0.7,1.3,0.2,2.9-1.1,3.5
					c-1.6,0.8-3.7,1.9-5.9,2.7c-1.6,0.6-3.3-0.1-4-1.6l-1.2-2.4C319.3,1424.3,319.7,1422.5,321.1,1421.6z"/>
				<path class="st26" d="M325.5,1436.1c1.6-1,3.7-2.3,5.6-3.1c1.3-0.5,2.8,0,3.5,1.3l1.9,3.6c0.7,1.3,0.2,2.8-1.1,3.5
					c-1.5,0.8-3.7,1.9-5.9,2.7c-1.5,0.6-3.2-0.1-4-1.6l-1.1-2.3C323.7,1438.7,324.2,1437,325.5,1436.1z"/>
				<path class="st26" d="M335.6,1445.5c1.3-0.9,3.1-2,4.7-2.6c1.1-0.5,2.4,0,3,1.1l1.6,3.1c0.6,1.1,0.2,2.4-0.9,3
					c-1.3,0.7-3.1,1.6-5,2.3c-1.3,0.5-2.8-0.1-3.4-1.4l-1-2C334.1,1447.7,334.5,1446.3,335.6,1445.5z"/>
				<path class="st26" d="M349.8,1452.2c1.1-0.8,2.7-1.7,4.1-2.3c1-0.4,2.1,0,2.6,0.9l1.4,2.7c0.5,0.9,0.1,2.1-0.8,2.6
					c-1.1,0.6-2.7,1.4-4.3,2c-1.1,0.4-2.4-0.1-2.9-1.2l-0.8-1.7C348.5,1454.1,348.8,1452.9,349.8,1452.2z"/>
			</g>
			<path class="st30" d="M360.9,1649h-74.3c3.3-42,20.2-154.9,20.2-154.9s1.3,0.4,3.5,1c7.6,2.4,25.3,8.9,31.8,18.6
				c0.7,1,1.2,2,1.7,3.1C343.8,1516.8,362.3,1613.7,360.9,1649z"/>
		</g>
		<g>
			<g>
				<path class="st25" d="M2075.7,1590c0.6,18.8,3,49.4,3.4,50.6l-25.5,8.4h-10.2c0.3-8,0.9-28.1,1-41.5c0-5.4-0.1-9.7-0.3-11.8
					c-0.4-3.4-1.8-5.6-3.4-7c-2.7-2.4-5-5.2-6.7-8.4c-0.9-1.7-1.7-3.5-2.3-5.4l-3.7-12.4l-3.7-12.5l-0.2-0.8c0,0,0.7-4.5,2-10.3
					c0-0.1,0-0.1,0-0.2v0c0.8-3.5,1.9-7.5,3.2-11.2c0.1-0.2,0.2-0.5,0.3-0.7c1.8-4.9,4-9.3,6.6-11.7c0,0,0,0,0,0
					c0.9-0.8,1.9-1.4,2.9-1.7c3.5-1,9.4-1.2,14.6-0.1c3.6,0.8,6.8,2.2,8.9,4.4c0.3-0.9,0.5-1.7,0.7-2.6c1.2-4.4,2-8.6,4-11.2
					c1.4-1.8,2.9-3.1,4.4-4.1c2-1.3,4-2,5.7-2.3c1-0.2,2,0.2,2.7,0.8c0.1,0.1,0.2,0.2,0.2,0.3c0.6,0.8,0.8,1.8,0.4,2.9
					c-0.7,2-1.6,4.6-2.3,7.6c-2,8.2-3,19.4,2.2,28.9c9.5,17.4-3.1,30.4-4.6,38.6C2075.5,1578.6,2075.5,1583.6,2075.7,1590z"/>
				<path class="st26" d="M2077.3,1508.5l1,0.5c0.7-3,4.1-8.8,4.8-10.7c0.4-1-1.8-1-2.6-0.3c-0.5,0.2-1.3,1.2-1.6,1.8
					c-1,1.5-2.2,3.6-2.9,5.5C2075.5,1506.5,2076.1,1507.9,2077.3,1508.5z"/>
			</g>
			<g>
				<g>
					<path class="st27" d="M2015,1601.9l1,0.5c3.4,1.7,6.9,1.4,7.9-0.7l59.7-127.6l-7.6-3.8l-65.1,124.9
						C2009.8,1597.3,2011.6,1600.3,2015,1601.9z"/>
				</g>
				<path class="st28" d="M1995.5,1434.5l165.8,81.9c4.7,2.3,10.4,0.4,12.7-4.3l75.6-153c2.3-4.7,0.4-10.4-4.3-12.7l-165.8-81.9
					c-4.7-2.3-10.4-0.4-12.7,4.3l-75.6,153C1988.9,1426.5,1990.8,1432.2,1995.5,1434.5z"/>
				<path class="st29" d="M2029.5,1441.3l105.7,52.3c16.4,8.1,36.5,1.3,44.7-15.1l46.5-94.2c8.1-16.4,1.3-36.5-15.1-44.7
					l-105.7-52.3c-16.4-8.1-36.5-1.3-44.7,15.1l-46.5,94.2C2006.3,1413.1,2013.1,1433.2,2029.5,1441.3z"/>
				<path class="st24" d="M2114.5,1330l-32.2-13.6c-3.6-1.5-6.4-2-8.3-1.3c-1.9,0.6-3.9,2.6-5.9,6c-8.6,14.4-14.1,23.7-16.4,27.8
					c-0.2,0.4-1,1.7-2.5,4c-1.1,1.9-1.8,3.1-2,3.6c-2.4,5.6-1.4,9.3,3,11.1c2.1,0.9,5.3,1.5,9.6,1.8c4.3,0.3,7.5,0.9,9.6,1.8
					c11,4.6,13.9,13,8.8,25.1c-2.3,5.5-5.8,9.4-10.5,11.7c-4.7,2.3-9.8,2.3-15.3,0c-4.7-2-8.8-5.6-12.1-10.9
					c-3.3-5.3-5.8-8.2-7.4-8.9c-2.1-0.9-4.1-0.8-6.1,0.3c-2,1-3.4,2.6-4.3,4.7c-1,2.5-1.1,5.3-0.1,8.5c1.5,4.9,4.6,9.6,9.3,14.1
					c4.3,4.1,9,7.3,14.1,9.5c7.5,3.2,15.1,4.1,22.8,2.7c7.7-1.4,14.4-4.9,20.1-10.5c3.8-3.7,7-8.6,9.5-14.6
					c3.8-9.1,4.4-17.9,1.7-26.5c-2.8-9.1-8.6-15.5-17.6-19.3c-3.7-1.6-7.8-2.5-12.4-2.7l11.5-19.2l26.8,11.3
					c6.6,2.8,11,1.5,13.3-3.8C2123.6,1337.1,2121.3,1332.9,2114.5,1330z"/>
				<path class="st24" d="M251.5,1207.8l-34.2,7.2c-3.8,0.8-6.3,2-7.6,3.6c-1.2,1.6-1.7,4.4-1.4,8.3c1.1,16.8,1.9,27.5,2.4,32.2
					c0.1,0.4,0.1,2,0.2,4.7c0.1,2.2,0.3,3.6,0.4,4.2c1.2,5.9,4.2,8.4,8.8,7.4c2.2-0.5,5.2-1.8,8.9-4c3.7-2.2,6.7-3.5,8.9-4
					c11.7-2.4,18.8,2.8,21.5,15.6c1.2,5.8,0.6,11-2,15.6c-2.6,4.6-6.7,7.5-12.6,8.7c-5,1.1-10.4,0.4-16.2-2
					c-5.8-2.4-9.5-3.4-11.2-3.1c-2.2,0.5-3.8,1.7-4.9,3.7c-1,2-1.3,4.1-0.9,6.3c0.5,2.6,2.1,5,4.8,7c4,3.1,9.2,5.2,15.6,6.3
					c5.9,1,11.5,0.9,16.9-0.2c7.9-1.7,14.7-5.3,20.2-10.8c5.6-5.5,9.1-12.2,10.6-20.1c1-5.3,0.8-11-0.5-17.4
					c-2-9.6-6.6-17.2-13.7-22.8c-7.4-5.9-15.9-7.8-25.5-5.8c-3.9,0.8-7.8,2.4-11.7,4.8l-1.5-22.3l28.5-6c7-1.5,9.9-5,8.8-10.7
					C262.9,1208.5,258.7,1206.3,251.5,1207.8z"/>
			</g>
			<g>
				<path class="st13" d="M2036.5,1515.3l25.4,14.3c2.1,1.3,4.1,1,5.4-1.1l2.4-3.9c1.3-2.1,0.6-4.9-1.5-6.2l-19.9-13.3
					c-2.6-1.7-6.2-0.9-8,1C2040.1,1506,2032.2,1513,2036.5,1515.3z"/>
				<path class="st13" d="M2028.4,1527l25.7,15.4c3.3,2,7.7,0.9,9.7-2.4l0,0c2-3.3,0.9-7.7-2.4-9.7l-25.7-15.4
					c-3.3-2-6.4-3.3-9.7,2.4l0,0C2022.6,1521.7,2025.1,1525,2028.4,1527z"/>
				<path class="st13" d="M2024.6,1538.1l20.9,11.3c2.9,1.7,6,1.6,7.7-1.3l0,0c1.7-2.9,0.8-6.7-2.1-8.4l-20.3-12.2
					c-2.9-1.7-5.7-3.6-8.4,2.1l0,0C2020.3,1533.6,2021.7,1536.4,2024.6,1538.1z"/>
				<path class="st13" d="M2020.4,1547.6l11.9,7.1c2.5,1.5,5.8,0.7,7.2-1.8l0,0c1.5-2.5,0.7-5.8-1.8-7.2l-11.9-7.1
					c-2.5-1.5-5.8-0.7-7.2,1.8l0,0C2017.1,1542.9,2017.9,1546.1,2020.4,1547.6z"/>
				<path class="st26" d="M2069.2,1521.8c-1.5-1.1-3.4-2.4-5.2-3.3c-1.3-0.6-2.7-0.2-3.4,1l-2,3.4c-0.7,1.2-0.3,2.7,0.8,3.4
					c1.4,0.9,3.5,2,5.6,2.9c1.5,0.6,3.1,0,3.9-1.4l1.2-2.2C2070.8,1524.4,2070.5,1522.7,2069.2,1521.8z"/>
				<path class="st26" d="M2064.2,1535.4c-1.4-1.1-3.4-2.4-5.2-3.3c-1.2-0.6-2.7-0.2-3.4,1l-2,3.4c-0.7,1.2-0.3,2.7,0.8,3.4
					c1.4,0.9,3.4,2,5.5,2.9c1.4,0.6,3.1,0,3.9-1.3l1.2-2.2C2065.8,1538,2065.5,1536.4,2064.2,1535.4z"/>
				<path class="st26" d="M2054.1,1544c-1.2-0.9-2.9-2-4.4-2.8c-1.1-0.5-2.3-0.1-2.9,0.9l-1.7,2.9c-0.6,1-0.3,2.3,0.7,2.9
					c1.2,0.7,2.9,1.7,4.7,2.5c1.2,0.5,2.7,0,3.3-1.1l1-1.9C2055.5,1546.2,2055.2,1544.7,2054.1,1544z"/>
				<path class="st26" d="M2040.2,1549.7c-1.1-0.8-2.5-1.8-3.8-2.4c-0.9-0.4-2-0.1-2.5,0.8l-1.5,2.5c-0.5,0.9-0.2,2,0.6,2.5
					c1.1,0.6,2.5,1.5,4.1,2.1c1.1,0.5,2.3,0,2.9-1l0.9-1.6C2041.3,1551.6,2041.1,1550.4,2040.2,1549.7z"/>
			</g>
			<path class="st30" d="M2086.1,1649h-50.9c4.1-22,7.7-38.9,7.7-38.9c0.4-0.9,0.9-1.8,1.5-2.7c6.4-9.4,24.1-15.3,31.3-17.4
				c2-0.6,3.2-0.9,3.2-0.9S2082.3,1616.6,2086.1,1649z"/>
		</g>
		<g>
			<g>
				<path class="st25" d="M1102.5,1475.5l11.2,36.1c0,0,7.8,0.8,9,9.4c1.1,8.6-8.7,59.6-8.7,59.6l48.5-7.3
					c-0.6-1.5-10.1-63.4-8.7-71.4c1.4-8,13.7-20.9,4.2-38c-5.2-9.3-4.3-20.3-2.4-28.4c0.7-3,1.5-5.6,2.2-7.5c0.4-1,0.1-2.1-0.5-2.8
					c-0.6-0.8-1.7-1.3-2.9-1.1c-3,0.6-6.7,2.3-9.9,6.5c-2.3,3-3,8.4-4.5,13.6c-5-5.4-17.5-5.7-23.2-4
					C1107.1,1443,1102.5,1475.5,1102.5,1475.5z"/>
				<path class="st26" d="M1154.5,1435.1l1,0.5c0.7-3,3.9-8.7,4.6-10.6c0.4-1-1.7-0.9-2.6-0.3c-0.5,0.2-1.3,1.2-1.6,1.8
					c-0.9,1.5-2.1,3.6-2.7,5.4C1152.7,1433.1,1153.3,1434.5,1154.5,1435.1z"/>
			</g>
			<g>
				<g>
					<path class="st27" d="M1101.6,1543.2l1.1,0.4c3.6,1.3,7.1,0.5,7.8-1.6l46.7-140.8l-8-2.8l-52.4,138.9
						C1095.9,1539.3,1098.1,1542,1101.6,1543.2z"/>
				</g>
				<path class="st28" d="M1065,1372.3l174.4,61.6c4.9,1.7,10.4-0.9,12.1-5.8l56.8-161c1.7-4.9-0.9-10.4-5.8-12.1l-174.4-61.6
					c-4.9-1.7-10.4,0.9-12.1,5.8l-56.8,161C1057.5,1365.1,1060.1,1370.5,1065,1372.3z"/>
				<path class="st29" d="M1099.6,1374.9l111.2,39.3c17.3,6.1,36.4-3,42.5-20.3l35-99.1c6.1-17.3-3-36.4-20.3-42.5l-111.2-39.3
					c-17.3-6.1-36.4,3-42.5,20.3l-35,99.1C1073.1,1349.7,1082.3,1368.8,1099.6,1374.9z"/>
				<path class="st24" d="M1272,1300c-2.1-11.8-8-20.4-17.8-25.6c-2.1-1.1-4.4-2.1-6.9-2.9c-13.9-4.7-26.2-2-36.9,8
					c-8.4,7.8-15.1,19.3-20.1,34.4c-5.1,15.1-6.6,28.3-4.5,39.7c2.5,14.4,10.7,23.9,24.6,28.5c13.8,4.6,26.1,2,36.8-8
					c8.5-7.9,15.2-19.4,20.3-34.5c0.3-1,0.6-2,0.9-2.9c0,0,0,0,0,0C1272.6,1322.7,1273.8,1310.5,1272,1300z M1248.4,1333.1
					c-3.2,9.7-7,17.3-11.2,22.9c-6.5,8.7-13.5,11.8-21.1,9.2c-13.1-4.4-15.4-19.5-6.8-45.2c3.2-9.6,7-17.2,11.4-22.9
					c6.4-8.5,13.5-11.4,21.2-8.9c7.5,2.5,11.3,9.1,11.4,19.9C1253.1,1315.3,1251.5,1323.6,1248.4,1333.1z"/>
				<path class="st24" d="M349.1,1211.9c-8.3-8.7-18-12.5-29.1-11.4c-2.4,0.2-4.8,0.7-7.3,1.4c-14.2,3.8-22.9,12.9-26.3,27.1
					c-2.6,11.1-1.8,24.4,2.3,39.7c4.2,15.4,10.3,27.2,18.3,35.6c10.1,10.6,22.2,13.9,36.3,10.1c14.1-3.8,22.8-12.8,26.2-27.1
					c2.7-11.3,2-24.6-2.2-39.9c-0.3-1-0.6-2-0.8-3c0,0,0,0,0,0C362.2,1230.5,356.4,1219.6,349.1,1211.9z M347.8,1252.5
					c2.7,9.8,3.8,18.3,3.4,25.3c-0.6,10.8-4.7,17.3-12.5,19.4c-13.4,3.6-23.6-7.7-30.7-33.9c-2.6-9.7-3.7-18.2-3.2-25.4
					c0.6-10.6,4.9-17,12.7-19.1c7.6-2.1,14.5,1.4,20.5,10.3C341.9,1235.1,345.2,1242.9,347.8,1252.5z"/>
				<path class="st24" d="M1827.3,1272.8c-7.1-9.7-16.2-14.7-27.3-15.1c-2.4-0.1-4.9,0-7.5,0.4c-14.6,2-24.4,9.8-29.6,23.4
					c-4,10.7-5,23.9-2.9,39.7c2.1,15.8,6.6,28.3,13.5,37.7c8.6,11.8,20.2,16.7,34.6,14.7c14.4-2,24.3-9.8,29.5-23.4
					c4.1-10.8,5.1-24.1,3-39.9c-0.1-1-0.3-2-0.4-3c0,0,0,0,0,0C1837.9,1293,1833.6,1281.5,1827.3,1272.8z M1820.7,1313
					c1.4,10.1,1.4,18.6,0,25.5c-2,10.6-6.9,16.5-14.9,17.6c-13.7,1.9-22.4-10.7-26.1-37.6c-1.3-10-1.3-18.5,0.1-25.6
					c2-10.4,7-16.2,15.1-17.3c7.8-1.1,14.2,3.2,19,12.9C1817.2,1294.9,1819.4,1303.1,1820.7,1313z"/>
				<path class="st24" d="M2104.1,1423.3c-0.4,12,3.6,21.6,12,28.8c1.8,1.6,3.9,3,6.1,4.3c12.6,7.5,25.2,7.5,37.8,0
					c9.8-5.9,18.8-15.7,26.9-29.3c8.1-13.7,12.4-26.3,12.8-37.9c0.5-14.6-5.5-25.6-18-33.1c-12.5-7.4-25.1-7.4-37.6,0.1
					c-10,5.9-19,15.7-27.1,29.4c-0.5,0.9-1,1.8-1.5,2.7c0,0,0,0,0,0C2108.3,1401,2104.5,1412.6,2104.1,1423.3z M2134.1,1395.9
					c5.2-8.8,10.5-15.4,15.8-20c8.2-7.1,15.7-8.6,22.6-4.5c11.9,7.1,11,22.3-2.9,45.6c-5.1,8.7-10.5,15.3-16,20
					c-8.1,6.9-15.6,8.3-22.6,4.2c-6.8-4-9.1-11.3-6.9-21.9C2125.7,1412.3,2129,1404.5,2134.1,1395.9z"/>
			</g>
			<g>
				<path class="st13" d="M1114.4,1442.1l25.1,13.8c2.1,1.2,4.1,0.9,5.3-1.2l2.3-3.9c1.2-2.1,0.5-4.8-1.6-6l-19.7-12.9
					c-2.6-1.6-6.1-0.8-7.9,1.1C1117.9,1433,1110.2,1439.9,1114.4,1442.1z"/>
				<path class="st13" d="M1106.6,1453.7l25.5,14.9c3.3,1.9,7.6,0.8,9.6-2.5l0,0c1.9-3.3,0.8-7.6-2.5-9.5l-25.5-14.9
					c-3.3-1.9-6.4-3.2-9.5,2.5l0,0C1100.8,1448.6,1103.3,1451.8,1106.6,1453.7z"/>
				<path class="st13" d="M1103,1464.7l20.7,10.9c2.9,1.7,5.9,1.5,7.6-1.3l0,0c1.7-2.9,0.7-6.6-2.2-8.2l-20.1-11.8
					c-2.9-1.7-5.7-3.5-8.2,2.2l0,0C1098.7,1460.3,1100.1,1463.1,1103,1464.7z"/>
				<path class="st13" d="M1098.9,1474.1l11.8,6.9c2.5,1.4,5.7,0.6,7.1-1.9l0,0c1.4-2.5,0.6-5.7-1.9-7.1l-11.8-6.9
					c-2.5-1.4-5.7-0.6-7.1,1.9l0,0C1095.6,1469.4,1096.4,1472.6,1098.9,1474.1z"/>
				<path class="st26" d="M1146.7,1448.2c-1.4-1-3.4-2.4-5.2-3.2c-1.2-0.6-2.7-0.1-3.4,1.1l-2,3.4c-0.7,1.2-0.3,2.7,0.9,3.4
					c1.4,0.9,3.4,2,5.5,2.8c1.4,0.6,3.1,0,3.8-1.4l1.2-2.2C1148.3,1450.8,1147.9,1449.1,1146.7,1448.2z"/>
				<path class="st26" d="M1141.9,1461.7c-1.4-1-3.4-2.3-5.1-3.1c-1.2-0.6-2.7-0.1-3.3,1l-1.9,3.4c-0.7,1.2-0.3,2.7,0.9,3.3
					c1.4,0.8,3.4,1.9,5.4,2.8c1.4,0.6,3.1,0,3.8-1.4l1.2-2.2C1143.5,1464.2,1143.2,1462.5,1141.9,1461.7z"/>
				<path class="st26" d="M1132.1,1470.1c-1.2-0.9-2.9-2-4.4-2.7c-1-0.5-2.3-0.1-2.8,0.9l-1.6,2.8c-0.6,1-0.2,2.3,0.7,2.8
					c1.2,0.7,2.9,1.7,4.6,2.4c1.2,0.5,2.6,0,3.2-1.2l1-1.8C1133.4,1472.3,1133.1,1470.9,1132.1,1470.1z"/>
				<path class="st26" d="M1118.4,1475.9c-1-0.8-2.5-1.7-3.8-2.3c-0.9-0.4-2-0.1-2.5,0.8l-1.4,2.5c-0.5,0.9-0.2,2,0.6,2.5
					c1,0.6,2.5,1.4,4,2.1c1.1,0.4,2.3,0,2.8-1l0.9-1.6C1119.6,1477.8,1119.3,1476.6,1118.4,1475.9z"/>
			</g>
			<path class="st12" d="M1173.1,1649h-68.9c0.6-10.9,2.3-24.7,4.3-38.9c0.9-5.9,1.8-11.9,2.7-17.7c0.2-1.3,0.4-2.5,0.6-3.8
				c0.2-1.4,0.5-2.8,0.7-4.2c0.2-1.3,0.5-2.7,0.7-4c0.5-2.8,1-5.5,1.4-8.2c0.3,0,0.6-0.1,0.8-0.1c9.4-0.9,23.4-2.8,31.1-6.6
				c5.2-2.5,9.8-4.8,13.4-6.2c0.9-0.3,1.7-0.6,2.5-0.9c0.9,7.1,1.9,14.6,2.8,22.3C1168.5,1604.7,1171.5,1630.4,1173.1,1649z"/>
			<path class="st11" d="M1165.5,1580.7c0,0-50.9,16.8-56.9,29.4c0.9-5.9,1.8-11.9,2.7-17.7c0.2-1.3,0.4-2.5,0.6-3.8
				c2-1.8,4.5-3,7.5-3.3L1165.5,1580.7z"/>
			<path class="st12" d="M1165.5,1580.7c-13.4,5.4-42,12.5-54.2,11.7c-1.6-0.1-2.9-0.4-3.8-0.8c0,0-2.7-1.8-1.8-4.7
				c0.1-0.3,0.2-0.6,0.4-0.9c1.1-2.1-1.2-6.2-1.7-9.3c-0.4-1.9-0.1-3.4,1.9-3.9c0,0,3.5-0.2,8.6-0.6c9.3-0.9,24-2.8,32-6.7
				c6.4-3.2,12-5.8,15.9-7.1c3.6-1.1,5.9-1,6.4,1c1,4.2,1.3,12.4,3.6,16.7C1173.2,1577,1170.3,1578.7,1165.5,1580.7z"/>
			<path class="st11" d="M1121.5,1582.1c-1.5,0.3-13.9,3.1-15.8,4.7c0.1-0.3,0.2-0.6,0.4-0.9c1.1-2.1-1.2-6.2-1.7-9.3
				c1,0.8,5.7,4.5,14.9,3.8C1129.5,1579.6,1123.1,1581.8,1121.5,1582.1z"/>
		</g>
		<g>
			<g>
				<path class="st25" d="M1748,1529.6l25.3,31.7c0,0,8.1-2.3,12.6,5.9c4.5,8.2,21.6,55.8,21.6,55.8l30.4-25.7
					c-1.2-1.3-26.6-52.7-28.3-61.3c-1.7-8.6,5.5-26.2-10.6-39.5c-8.8-7.2-12.2-18.6-13.5-27.4c-0.5-3.2-0.7-6.1-0.7-8.4
					c0-1.2-0.7-2.1-1.6-2.6c-1-0.6-2.2-0.6-3.3,0.1c-2.7,1.8-5.8,4.9-7.3,10.3c-1.1,3.9,0.3,9.5,0.8,15.3c-7.1-3.4-19.7,1.2-24.7,5
					C1740,1495.3,1748,1529.6,1748,1529.6z"/>
				<path class="st26" d="M1784.2,1469l1.2,0.1c-0.5-3.2,0.5-10.2,0.5-12.4c0-1.2-2.1-0.3-2.7,0.7c-0.4,0.4-0.8,1.7-0.9,2.4
					c-0.3,1.9-0.7,4.4-0.6,6.5C1781.6,1467.7,1782.8,1468.9,1784.2,1469z"/>
			</g>
			<path class="st31" d="M1790.9,1583.5c0,0,1.7,12.2,4.5,29.5c0,0.1,0,0.2,0.1,0.3c0.1,0.5,0.1,0.9,0.2,1.4c0,0,0,0.1,0,0.1
				c0.1,0.4,0.1,0.9,0.2,1.3c0.2,1.3,0.4,2.7,0.7,4.2c0.3,1.5,0.5,3.1,0.8,4.6c0.3,1.6,0.5,3.2,0.8,4.9c2.7,15.7,3.2,18,3.4,19.1
				h65.8c-11-22.6-13-24.9-26.9-50.7c-0.8-1.6-1.7-3.1-2.5-4.6c-11-20.4-19.4-35.7-20-36.7c0,0,0-0.1,0-0.1s-24.4,5.5-27,22
				C1790.8,1580.4,1790.7,1582,1790.9,1583.5z"/>
			<g>
				<path class="st28" d="M1674.1,1435l184.1-17.7c5.2-0.5,9-5.2,8.5-10.3l-16.3-169.9c-0.5-5.2-5.2-9-10.3-8.5l-184.1,17.7
					c-5.2,0.5-9,5.2-8.5,10.3l16.3,169.9C1664.2,1431.7,1668.9,1435.5,1674.1,1435z"/>
				<g>
					<path class="st27" d="M1779.9,1578.5l1.1-0.1c3.8-0.4,6.6-2.5,6.3-4.8l-17.6-151.3l-8.5,0.8l11.5,151.9
						C1773.1,1577.3,1776.2,1578.9,1779.9,1578.5z"/>
				</g>
				<path class="st29" d="M1706.6,1422.9l117.4-11.3c18.3-1.8,31.8-18.1,30-36.4l-10-104.6c-1.8-18.3-18.1-31.8-36.4-30l-117.4,11.3
					c-18.3,1.8-31.8,18.1-30,36.4l10,104.6C1672,1411.1,1688.3,1424.6,1706.6,1422.9z"/>
				<path class="st24" d="M1695.8,1324.1c-8.7-4.5-13.5-11.9-14.4-22.2c-0.8-8.8,1.9-16.2,7.8-22.1c5.7-5.6,13.1-8.8,22.1-9.6
					c9-0.8,16.7,1.1,23.2,5.7c6.9,4.9,10.7,11.7,11.5,20.5c0.9,10.2-2.5,18.3-10.3,24.3c12.3,4.6,18.9,13.7,20.1,27.1
					c0.9,10.7-2,19.7-8.7,26.8c-6.3,6.7-15,10.5-25.9,11.5c-10.9,0.9-20.2-1.4-27.8-7.1c-7.6-5.7-11.9-13.9-12.8-24.8
					C1679.5,1340.6,1684.5,1330.6,1695.8,1324.1z M1700.3,1351.2c0.5,5.8,2.4,10.4,5.7,13.5c3.3,3.2,7.9,4.5,13.7,4
					c5.7-0.5,10-2.6,12.7-6.3c2.7-3.7,3.8-8.5,3.3-14.3c-0.5-5.6-2.4-10.1-5.8-13.4c-3.6-3.7-8.1-5.3-13.6-4.9
					c-5.5,0.5-9.7,2.7-12.6,6.8C1701,1340.7,1699.8,1345.6,1700.3,1351.2z M1699.9,1301.3c0.4,4.4,1.9,7.9,4.7,10.6
					c2.8,2.7,6.3,3.9,10.6,3.5c4.3-0.4,7.6-2.2,9.9-5.5c2.1-3,3-6.6,2.6-11c-0.3-4-1.9-7.1-4.7-9.2c-2.8-2.2-6.2-3.1-10.2-2.8
					c-4.2,0.4-7.5,1.8-9.8,4.4C1700.5,1293.9,1699.5,1297.3,1699.9,1301.3z"/>
				<path class="st24" d="M1135,1287.8c-5.6-8.1-6.4-16.9-2.3-26.4c3.5-8.1,9.2-13.4,17.3-15.8c7.7-2.3,15.7-1.7,24,1.9
					s14.2,8.9,17.8,16c3.8,7.5,4,15.4,0.5,23.5c-4,9.4-10.9,15-20.5,16.6c8.6,9.8,10.3,21,5,33.4c-4.2,9.9-11,16.4-20.3,19.6
					c-8.7,3-18.2,2.3-28.3-2.1s-17.2-10.8-21.2-19.4c-4-8.6-3.9-17.9,0.3-27.9C1112.8,1294.7,1122,1288.2,1135,1287.8z
					 M1126.2,1313.9c-2.3,5.4-2.7,10.3-1.3,14.6c1.4,4.4,4.8,7.7,10.2,10c5.3,2.3,10,2.4,14.1,0.4c4.1-2,7.4-5.7,9.7-11.1
					c2.2-5.2,2.6-10.1,1.2-14.6c-1.4-5-4.7-8.5-9.7-10.7c-5.1-2.2-9.9-2.1-14.3,0.1C1131.8,1304.9,1128.4,1308.7,1126.2,1313.9z
					 M1149.3,1269.6c-1.7,4.1-2,7.9-0.9,11.6c1.2,3.7,3.7,6.4,7.7,8.1c4,1.7,7.7,1.6,11.3-0.2c3.3-1.6,5.8-4.5,7.5-8.5
					c1.6-3.7,1.6-7.1,0.2-10.4c-1.5-3.2-4-5.7-7.7-7.2c-3.9-1.7-7.5-1.9-10.7-0.7C1153.4,1263.4,1150.9,1265.9,1149.3,1269.6z"/>
			</g>
			<g>
				<path class="st13" d="M1746.9,1491.6l30.4,4c2.6,0.4,4.4-0.6,4.8-3.2l0.8-4.8c0.4-2.6-1.4-5-3.9-5.4l-24.7-5.2
					c-3.2-0.6-6.4,1.5-7.5,4.2C1746.9,1481.1,1741.9,1491,1746.9,1491.6z"/>
				<path class="st13" d="M1743.7,1506.2l31.2,5c4.1,0.6,7.9-2.1,8.6-6.2l0,0c0.6-4.1-2.1-7.9-6.2-8.6l-31.2-5
					c-4.1-0.6-7.6-0.7-8.6,6.2l0,0C1735.8,1503.4,1739.6,1505.6,1743.7,1506.2z"/>
				<path class="st13" d="M1744.3,1518.6l24.9,2.8c3.5,0.6,6.5-0.8,7.1-4.3h0c0.6-3.5-1.9-6.8-5.4-7.4l-24.6-3.9
					c-3.5-0.6-7-1.3-7.4,5.4l0,0C1738.3,1515.8,1740.8,1518.1,1744.3,1518.6z"/>
				<path class="st13" d="M1743.9,1529.5l14.4,2.3c3,0.5,5.9-1.6,6.4-4.6l0,0c0.5-3-1.6-5.9-4.6-6.4l-14.4-2.3
					c-3-0.5-5.9,1.6-6.4,4.6l0,0C1738.8,1526.2,1740.9,1529,1743.9,1529.5z"/>
				<path class="st26" d="M1781.5,1485.1c-1.8-0.5-4.3-1-6.4-1.2c-1.5-0.1-2.7,0.9-3,2.4l-0.6,4.1c-0.2,1.4,0.7,2.8,2.2,3
					c1.8,0.3,4.2,0.6,6.6,0.7c1.7,0,3.1-1.2,3.3-2.9l0.3-2.6C1784.1,1487.1,1783.1,1485.5,1781.5,1485.1z"/>
				<path class="st26" d="M1782,1500.4c-1.8-0.5-4.3-1-6.3-1.1c-1.4-0.1-2.7,0.9-2.9,2.3l-0.6,4.1c-0.2,1.4,0.7,2.8,2.2,3
					c1.7,0.3,4.2,0.6,6.5,0.7c1.7,0,3.1-1.2,3.3-2.8l0.3-2.6C1784.6,1502.3,1783.5,1500.8,1782,1500.4z"/>
				<path class="st26" d="M1775.4,1512.7c-1.5-0.4-3.6-0.9-5.4-1c-1.2-0.1-2.3,0.8-2.5,2l-0.5,3.5c-0.2,1.2,0.6,2.3,1.8,2.5
					c1.5,0.2,3.5,0.5,5.5,0.6c1.4,0,2.6-1,2.8-2.4l0.3-2.2C1777.6,1514.3,1776.8,1513.1,1775.4,1512.7z"/>
				<path class="st26" d="M1764,1523.8c-1.3-0.4-3.1-0.8-4.7-0.8c-1.1-0.1-2,0.7-2.2,1.7l-0.5,3c-0.2,1,0.5,2,1.6,2.2
					c1.3,0.2,3.1,0.5,4.8,0.5c1.2,0,2.3-0.9,2.4-2.1l0.2-1.9C1765.9,1525.2,1765.2,1524.1,1764,1523.8z"/>
			</g>
			<g>
				<path class="st12" d="M1795.1,1613.6c0.1-0.2,0.2-0.4,0.3-0.6c0,0.1,0,0.2,0.1,0.3c0.1,0.5,0.1,0.9,0.2,1.4c0,0,0,0.1,0,0.1
					c0.1,0.4,0.1,0.9,0.2,1.3c0.2,1.3,0.4,2.7,0.7,4.2c0,0.1,0,0.8,0,0.9c-0.1,1.4,0.1,2.6,0.7,3.5c0,0.1,0.1,0.2,0.2,0.3
					c0.1,0.2,0.2,0.3,0.3,0.4c1.7,1.9,5.4,2.1,10.2,0.5c5.3-1.8,11.2-5.5,16.6-10.4c5.7-5.2,10.7-12.1,12.7-17.7
					c0.1-0.4,0.2-0.7,0.3-1.1c0.3-1.1,0.5-2.1,0.6-3.1v0c0.1-1.7-0.3-3.1-1.2-4.2c-0.4-0.5-1-0.9-1.6-1.2c-0.7-1.3-1.4-2.6-2.1-3.9
					c2.6,0.2,4.7,1,6.2,2.7c2.3,2.6,2.6,6.5,1.1,11.1c0,0,0,0,0,0c-1.9,6.1-6.7,13.3-13.8,19.8c-5.7,5.3-12.1,9.2-17.8,11.1
					c-2.8,0.9-5.3,1.3-7.5,1.2c-1.2-0.1-2.3-0.3-3.3-0.7c0,0-0.1,0-0.1,0c-0.1,0-0.1-0.1-0.2-0.1c-1.1-0.5-2-1.1-2.7-1.9
					C1792.4,1624.7,1792.4,1619.7,1795.1,1613.6z"/>
			</g>
		</g>
		<g>
			<g>
				<path class="st24" d="M1822.2,1306.9c-7.3-5.9-15.6-7.7-24.7-5.3c-4.8,1.2-8.9,3.2-12.5,6l-0.3,0.1c3.4-10.4,8.8-21.7,16.2-34
					c1.6-2.7,2.2-5.2,1.6-7.4c-0.6-2.5-2.1-4.4-4.3-5.6c-2.2-1.2-4.6-1.5-7.1-0.9c-2.5,0.6-6.1,5.1-10.9,13.3
					c-16.6,28.5-22.4,52.7-17.3,72.7c2.7,10.8,8.2,19.2,16.3,24.9c8.7,6.2,18.3,7.9,29,5.2c11-2.8,19.1-8.6,24.2-17.3
					c5.1-8.7,6.3-18.6,3.5-29.6C1833.5,1319.6,1829,1312.2,1822.2,1306.9z M1815.6,1349c-2.1,4.7-5.8,7.7-11.2,9
					c-5.4,1.4-10.1,0.3-14.2-3.2c-3.5-3.1-6-7.5-7.5-13.2c-1.1-4.4-1.2-8.1-0.1-11.2c1.8-5.8,6-9.5,12.4-11.1
					c5.4-1.4,9.9-0.6,13.6,2.3c3.7,2.9,6.3,7.1,7.6,12.6C1817.7,1339.8,1817.5,1344.7,1815.6,1349z"/>
			</g>
		</g>
		<g>
			<g>
				<path class="st25" d="M639.1,1649h-38.4c-0.2-0.6-0.3-1.1-0.5-1.7c-1.8-6.6-3.4-11.9-4.4-14.2c-0.9-2.2-2.1-3.8-3.4-4.9
					c-4.1-3.6-9.2-2.7-9.2-2.7l-4.4-6.9l-18.3-28.7v0l-0.5-0.8c0,0-0.6-5-0.9-11.7c0-0.1,0-0.1,0-0.2c-0.2-4-0.2-8.6,0-13
					c0-0.3,0-0.6,0.1-0.9c0.4-5.8,1.4-11.3,3.5-14.7c0,0,0,0,0,0c0.7-1.2,1.6-2.1,2.6-2.7c3.5-2.1,9.9-4.2,16.1-4.6
					c3.8-0.2,7.4,0.3,10.2,1.8c0.1,0.1,0.3,0.2,0.4,0.3c0-1,0-2,0-3c-0.1-5.1-0.4-9.9,0.9-13.3c2.2-5.5,5.8-8.5,8.9-10
					c1.1-0.5,2.2-0.4,3.1,0.1c0.1,0.1,0.2,0.1,0.3,0.2c0.9,0.6,1.4,1.7,1.3,2.9c-0.2,2.4-0.3,5.5-0.2,8.9
					c0.4,9.5,2.7,21.9,11.2,30.5c15.5,15.9,5.9,33.8,6.7,43c0.2,2.7,2.2,9.3,4.8,17.5C632,1629.1,635.7,1639.8,639.1,1649z"/>
				<path class="st26" d="M605.2,1529l1.2,0.2c-0.1-3.5,1.7-10.7,1.9-13.1c0.1-1.2-2.2-0.5-2.9,0.4c-0.5,0.4-1,1.7-1.2,2.4
					c-0.6,1.9-1.2,4.5-1.4,6.8C602.6,1527.3,603.7,1528.7,605.2,1529z"/>
			</g>
			<path class="st12" d="M644.4,1649h-44.7c0.2-0.6,0.3-1.1,0.6-1.7c4.6-11.7,21.6-22.7,28.9-27c2.1-1.2,3.5-1.9,3.5-1.9
				S637.4,1630.8,644.4,1649z"/>
			<g>
				<g>
					<path class="st27" d="M584.6,1647.5l1.2,0c3.8,0,6.8-1.8,6.8-4.1l-1.4-140.8l-8.5-0.1l-4.6,140.8
						C577.9,1645.6,580.9,1647.4,584.6,1647.5z"/>
				</g>
				<path class="st28" d="M494.6,1504.9l184.9,2.1c5.2,0.1,9.5-4.2,9.6-9.4L691,1327c0.1-5.2-4.2-9.5-9.4-9.6l-184.9-2.1
					c-5.2-0.1-9.5,4.2-9.6,9.4l-1.9,170.7C485.1,1500.6,489.4,1504.9,494.6,1504.9z"/>
				<path class="st29" d="M528.2,1496.3l117.9,1.3c18.3,0.2,33.5-14.6,33.7-33l1.2-105c0.2-18.3-14.6-33.5-33-33.7l-117.9-1.3
					c-18.3-0.2-33.5,14.6-33.7,33l-1.2,105C495,1481,509.8,1496.1,528.2,1496.3z"/>
				<path class="st24" d="M578.9,1353.7h-53.1c-7.4,0-11.1,3-11.1,8.9c0,5.9,3.7,8.9,11.2,8.9h42.5l-0.8,1.5l-36.1,78.4
					c-1.5,3.1-2.3,5.9-2.3,8.4s1.1,4.7,3.2,6.3c2.2,1.6,4.5,2.5,7.1,2.5c3.9,0,7.2-3,9.9-8.9l40.2-89.5c1.4-3.2,2.2-5.7,2.2-7.5
					C591.8,1356.7,587.5,1353.7,578.9,1353.7z"/>
			</g>
			<g>
				<path class="st13" d="M563.2,1548.7l31.7,7.6c2.7,0.7,4.7-0.2,5.5-2.9l1.3-5c0.7-2.7-0.9-5.5-3.5-6.2l-25.5-8.3
					c-3.3-1-7,0.9-8.4,3.5C564.3,1537.6,557.9,1547.5,563.2,1548.7z"/>
				<path class="st13" d="M558.1,1563.8l32.5,8.8c4.2,1.1,8.6-1.4,9.8-5.6l0,0c1.1-4.2-1.4-8.6-5.6-9.8l-32.5-8.8
					c-4.2-1.1-7.9-1.6-9.8,5.6l0,0C550.1,1559.9,553.9,1562.6,558.1,1563.8z"/>
				<path class="st13" d="M557.3,1576.9l26,5.8c3.6,1,7-0.1,8-3.7l0,0c1-3.6-1.2-7.4-4.8-8.4l-25.6-6.9c-3.6-1-7.3-2.1-8.4,4.8l0,0
					C551.4,1573.3,553.7,1576,557.3,1576.9z"/>
				<path class="st13" d="M555.7,1588.5l15,4.1c3.1,0.9,6.4-1,7.3-4.2l0,0c0.9-3.1-1-6.4-4.2-7.3l-15-4.1c-3.1-0.9-6.4,1-7.3,4.2
					l0,0C550.7,1584.3,552.5,1587.6,555.7,1588.5z"/>
				<path class="st26" d="M600.5,1545.8c-1.9-0.7-4.4-1.6-6.7-2c-1.5-0.3-3,0.7-3.4,2.2l-1.1,4.3c-0.4,1.5,0.5,3,2,3.5
					c1.8,0.5,4.4,1.1,6.9,1.5c1.8,0.2,3.4-0.9,3.8-2.7l0.7-2.8C603,1548.1,602.1,1546.4,600.5,1545.8z"/>
				<path class="st26" d="M599.3,1562c-1.9-0.7-4.4-1.6-6.6-1.9c-1.5-0.3-3,0.7-3.4,2.1l-1.1,4.3c-0.4,1.5,0.5,3,1.9,3.4
					c1.8,0.5,4.3,1.1,6.8,1.4c1.7,0.2,3.4-0.9,3.8-2.6l0.6-2.7C601.8,1564.3,600.9,1562.6,599.3,1562z"/>
				<path class="st26" d="M590.9,1574.2c-1.6-0.6-3.7-1.3-5.6-1.6c-1.3-0.2-2.5,0.6-2.9,1.8l-1,3.6c-0.3,1.3,0.4,2.6,1.7,2.9
					c1.5,0.4,3.7,1,5.8,1.2c1.5,0.2,2.9-0.8,3.2-2.2l0.5-2.3C593.1,1576.2,592.3,1574.8,590.9,1574.2z"/>
				<path class="st26" d="M577.6,1584.7c-1.4-0.5-3.2-1.2-4.9-1.4c-1.1-0.2-2.2,0.5-2.5,1.6l-0.8,3.1c-0.3,1.1,0.3,2.2,1.4,2.5
					c1.3,0.4,3.2,0.8,5,1.1c1.3,0.2,2.5-0.7,2.8-1.9l0.5-2C579.5,1586.4,578.8,1585.1,577.6,1584.7z"/>
			</g>
		</g>
		<g>
			<g>
				<path class="st25" d="M2694.3,1511l-24,22.7h-4.7c-3-7-10.5-24.4-16.1-36.5c-2.5-5.5-4.7-9.9-5.9-11.8c-0.7-1.1-1.4-2-2.2-2.7
					l0,0c-4.5-4.1-10-2.2-10-2.2l-4.6-5.1l-20.4-22.8l-0.5-0.6c0,0-1.3-4.3-2.5-10.1c0-0.1,0-0.1,0-0.2c-0.7-3.5-1.5-7.5-1.9-11.4
					c0-0.3-0.1-0.5-0.1-0.8c-0.5-5.2-0.4-10.1,0.9-13.4c0,0,0,0,0,0c0.5-1.1,1.1-2.1,1.9-2.7c2.8-2.4,8.2-5.2,13.6-6.4
					c3.4-0.7,6.8-0.8,9.4,0.3c-0.1-0.9-0.3-1.8-0.4-2.7c-0.8-4.4-1.8-8.4-1.2-11.6v0c0-0.1,0-0.1,0-0.2c1.1-5.2,3.9-8.3,6.4-10.1
					c0.9-0.6,1.9-0.7,2.8-0.4h0c0.1,0,0.2,0.1,0.3,0.1c0.9,0.4,1.5,1.3,1.6,2.4c0.2,2.1,0.5,4.7,1.1,7.6c0,0.1,0,0.2,0,0.2
					c1.7,8.3,5.6,18.8,14.2,25.1c15.9,11.7,10.1,28.8,12.2,36.7c0.6,2.3,3.3,7.9,6.8,14.7C2679.7,1486.1,2693.5,1510.2,2694.3,1511z
					"/>
				<path class="st12" d="M2636.7,1392.8l1.1,0c-0.6-3-0.1-9.6-0.2-11.7c-0.1-1.1-2-0.1-2.5,0.8c-0.4,0.4-0.6,1.7-0.7,2.3
					c-0.2,1.8-0.4,4.2-0.2,6.1C2634.2,1391.7,2635.3,1392.8,2636.7,1392.8z"/>
			</g>
			<path class="st14" d="M2779.8,1649h-96.3c-4.3-19-34.3-148.4-34.3-148.4c0-1.1,0.1-2.2,0.3-3.3c2.3-11,15.6-23,21.4-27.9
				c1.7-1.4,2.7-2.2,2.7-2.2S2760.3,1614.9,2779.8,1649z"/>
			<g>
				<g>
					<path class="st27" d="M2638.6,1512.6l1.1-0.2c3.7-0.6,6.5-2.9,6.1-5.1l-24.5-138.7l-8.4,1.3l18.5,139.7
						C2631.6,1511.8,2634.9,1513.1,2638.6,1512.6z"/>
				</g>
				<path class="st28" d="M2526.4,1386.7l182.8-28.3c5.2-0.8,8.7-5.7,7.9-10.8l-26.1-168.7c-0.8-5.2-5.7-8.7-10.8-7.9l-182.8,28.3
					c-5.2,0.8-8.7,5.7-7.9,10.8l26.1,168.7C2516.3,1384,2521.2,1387.5,2526.4,1386.7z"/>
				<path class="st29" d="M2558.1,1372.8l116.5-18c18.1-2.8,30.7-19.9,27.8-38l-16.1-103.8c-2.8-18.1-19.9-30.7-38-27.8l-116.5,18
					c-18.1,2.8-30.7,19.9-27.8,38l16.1,103.8C2522.9,1363,2540,1375.6,2558.1,1372.8z"/>
				<path class="st24" d="M2603.4,1264.5c-1.3-11.8-5.4-21-12.2-27.6c-7.4-7-16.9-9.9-28.5-8.6c-11,1.2-19.7,5.9-26.1,14.1
					c-6.4,8.2-9,17.8-7.7,28.8c1.1,9.6,4.6,17.5,10.7,23.6c6.6,6.7,14.6,9.6,23.9,8.5c5.7-0.6,10.5-2.1,14.2-4.4l0.2,0
					c-3.9,8.3-9.6,16.8-16.9,25.4c-3,3.6-5,6.1-5.9,7.3c-1.4,2.1-2,4.1-1.8,5.9c0.3,2.5,1.3,4.5,3.2,6.2c1.8,1.7,4,2.4,6.4,2.1
					c8-0.9,18.3-12.9,31.1-36c4-7.2,6.8-14.3,8.5-21.5C2604,1281.1,2604.4,1273.2,2603.4,1264.5z M2579.9,1279.6
					c-2.8,3.8-7,6-12.4,6.6c-5.5,0.6-9.9-0.9-13.2-4.4c-2.9-3.2-4.7-7.6-5.3-13.4c-0.6-5.5,0.4-10.4,3-14.7
					c2.6-4.3,6.6-6.7,12.1-7.3c5.6-0.6,10.2,1.1,13.7,5.1c3,3.5,4.8,8.2,5.4,14.1C2583.9,1271.2,2582.7,1275.8,2579.9,1279.6z"/>
			</g>
			<g>
				<path class="st13" d="M2602.7,1416.2l29,2.1c2.4,0.2,4.1-0.8,4.4-3.3l0.5-4.6c0.2-2.4-1.6-4.7-4-4.9l-23.6-3.5
					c-3.1-0.4-6,1.8-6.8,4.3C2602.1,1406.3,2597.9,1415.9,2602.7,1416.2z"/>
				<path class="st13" d="M2600.4,1430.2l29.7,3c3.9,0.4,7.4-2.5,7.7-6.3l0,0c0.4-3.9-2.5-7.4-6.3-7.7l-29.7-3
					c-3.9-0.4-7.2-0.2-7.7,6.3l0,0C2592.9,1427.9,2596.6,1429.8,2600.4,1430.2z"/>
				<path class="st13" d="M2601.7,1441.8l23.7,1.3c3.3,0.3,6.1-1.1,6.4-4.4l0,0c0.3-3.3-2.1-6.3-5.5-6.7l-23.4-2.4
					c-3.3-0.3-6.7-0.8-6.7,5.5l0,0C2595.9,1439.5,2598.4,1441.5,2601.7,1441.8z"/>
				<path class="st13" d="M2601.9,1452.2l13.7,1.4c2.9,0.3,5.5-1.8,5.8-4.7l0,0c0.3-2.9-1.8-5.5-4.7-5.8l-13.7-1.4
					c-2.9-0.3-5.5,1.8-5.8,4.7l0,0C2596.9,1449.3,2599.1,1451.9,2601.9,1452.2z"/>
				<path class="st12" d="M2635,1408.2c-1.8-0.4-4.1-0.7-6.1-0.7c-1.4,0-2.5,1-2.7,2.4l-0.4,3.9c-0.1,1.4,0.9,2.6,2.2,2.7
					c1.7,0.2,4,0.4,6.2,0.3c1.6-0.1,2.9-1.3,3-2.9l0.2-2.5C2637.6,1409.9,2636.5,1408.5,2635,1408.2z"/>
				<path class="st12" d="M2636.3,1422.6c-1.7-0.4-4.1-0.7-6.1-0.7c-1.4,0-2.5,1-2.6,2.4l-0.4,3.9c-0.1,1.4,0.8,2.6,2.2,2.7
					c1.7,0.2,4,0.3,6.2,0.3c1.6-0.1,2.8-1.3,2.9-2.9l0.2-2.5C2638.8,1424.3,2637.8,1422.9,2636.3,1422.6z"/>
				<path class="st12" d="M2630.8,1434.6c-1.5-0.3-3.5-0.6-5.1-0.6c-1.2,0-2.1,0.9-2.2,2l-0.3,3.3c-0.1,1.2,0.7,2.2,1.9,2.3
					c1.4,0.2,3.4,0.3,5.3,0.2c1.3-0.1,2.4-1.1,2.5-2.4l0.1-2.1C2632.9,1436,2632.1,1434.8,2630.8,1434.6z"/>
				<path class="st12" d="M2620.6,1445.6c-1.3-0.3-3-0.5-4.5-0.5c-1,0-1.9,0.7-1.9,1.8l-0.3,2.9c-0.1,1,0.6,1.9,1.6,2
					c1.2,0.1,2.9,0.3,4.6,0.2c1.2,0,2.1-1,2.2-2.1l0.1-1.8C2622.5,1446.9,2621.7,1445.9,2620.6,1445.6z"/>
			</g>
		</g>
		<path class="st32" d="M2954.8,1656.4H78.3c-3.2,0-5.7-2.6-5.7-5.7v0c0-3.2,2.6-5.7,5.7-5.7h2876.5c3.2,0,5.7,2.6,5.7,5.7l0,0
			C2960.5,1653.8,2958,1656.4,2954.8,1656.4z"/>
		<g>
			<g>
				<path class="st24" d="M2679,1267.5c-7.3-5.9-15.6-7.7-24.7-5.3c-4.8,1.2-8.9,3.2-12.5,6l-0.3,0.1c3.4-10.4,8.8-21.7,16.2-34
					c1.6-2.7,2.2-5.2,1.6-7.4c-0.6-2.5-2.1-4.4-4.3-5.6c-2.2-1.2-4.6-1.5-7.1-0.9c-2.5,0.6-6.1,5.1-10.9,13.3
					c-16.6,28.5-22.4,52.7-17.3,72.7c2.7,10.8,8.2,19.2,16.3,24.9c8.7,6.2,18.3,7.9,29,5.2c11-2.8,19.1-8.6,24.2-17.3
					c5.1-8.7,6.3-18.6,3.5-29.6C2690.3,1280.2,2685.7,1272.8,2679,1267.5z M2672.3,1309.6c-2.1,4.7-5.8,7.7-11.2,9
					c-5.4,1.4-10.1,0.3-14.2-3.2c-3.5-3.1-6-7.5-7.5-13.2c-1.1-4.4-1.2-8.1-0.1-11.2c1.8-5.8,6-9.5,12.4-11.1
					c5.4-1.4,9.9-0.6,13.6,2.3c3.7,2.9,6.3,7.1,7.6,12.6C2674.5,1300.4,2674.2,1305.3,2672.3,1309.6z"/>
			</g>
		</g>
	</g>
</g>
<text transform="matrix(1 0 0 1 1486.0325 804.8474)"><tspan x="0" y="0" class="st10 st33 st34">I have bug in python and i need solution </tspan><tspan x="0" y="60" class="st10 st33 st34">for this.This error has wasted my 2 hour </tspan><tspan x="0" y="120" class="st10 st33 st34">but didn’t find any solution for this.</tspan></text>
<text transform="matrix(1 0 0 1 1482.1514 651.0291)" class="st10 st33 st35">var not defined </text>
<text transform="matrix(1 0 0 1 1491.8696 728.3042)" class="st10 st33 st36"> (Python) </text>
<use xlink:href="#Icon_3_-_Comments1"  width="736.9" height="449" id="XMLID_1_" x="-31" y="-457.8" transform="matrix(0.7776 0 0 -0.8962 696.5423 108.9425)" style="overflow:visible;"/>
<use xlink:href="#Icon_3_-_Comments2"  width="62" height="51.6" id="XMLID_2_" x="-31" y="-25.8" transform="matrix(7.4299 0 0 -7.4167 195.2402 1042.7152)" style="overflow:visible;"/>
<use xlink:href="#Star_-_Orange"  width="48" height="45.7" x="-24" y="-22.8" transform="matrix(1 0 0 -1 262.5724 1545.478)" style="overflow:visible;"/>
<text transform="matrix(1 0 0 1 771.7825 218.3042)"><tspan x="0" y="0" class="st33 st36">I want the solution</tspan><tspan x="0" y="76" class="st33 st36">within one hour </tspan><tspan x="0" y="152" class="st33 st36">help me to solve it.</tspan></text>
<text transform="matrix(0.958 0 0 1 80.1054 951.2349)"><tspan x="0" y="0" class="st33 st37">I can help you </tspan><tspan x="0" y="64.3" class="st33 st37">to solve this</tspan><tspan x="0" y="128.5" class="st33 st37"> in 60 seconds</tspan></text>
<use xlink:href="#Star_-_Orange"  width="48" height="45.7" x="-24" y="-22.8" transform="matrix(1 0 0 -1 207.5762 1545.7722)" style="overflow:visible;"/>
<use xlink:href="#Star_-_Orange"  width="48" height="45.7" x="-24" y="-22.8" transform="matrix(1 0 0 -1 155.5207 1545.4032)" style="overflow:visible;"/>
<use xlink:href="#Star_-_Orange"  width="48" height="45.7" x="-24" y="-22.8" transform="matrix(1 0 0 -1 1695.2402 1613.2782)" style="overflow:visible;"/>
<use xlink:href="#Star_-_Orange"  width="48" height="45.7" x="-24" y="-22.8" transform="matrix(1 0 0 -1 1415.0388 1587.8799)" style="overflow:visible;"/>
<use xlink:href="#Star_-_Orange"  width="48" height="45.7" x="-24" y="-22.8" transform="matrix(1 0 0 -1 1749.453 1610.5118)" style="overflow:visible;"/>
<use xlink:href="#Star_-_Orange"  width="48" height="45.7" x="-24" y="-22.8" transform="matrix(1 0 0 -1 102.0712 1546.0029)" style="overflow:visible;"/>
<use xlink:href="#Star_-_Orange"  width="48" height="45.7" x="-24" y="-22.8" transform="matrix(1 0 0 -1 1629.9872 1613.1766)" style="overflow:visible;"/>
<use xlink:href="#Star_-_Orange"  width="48" height="45.7" x="-24" y="-22.8" transform="matrix(1 0 0 -1 1564.6371 1609.4558)" style="overflow:visible;"/>
<use xlink:href="#Star_-_Orange"  width="48" height="45.7" x="-24" y="-22.8" transform="matrix(1 0 0 -1 1497.3552 1610.905)" style="overflow:visible;"/>
<use xlink:href="#Star_-_Orange"  width="48" height="45.7" x="-24" y="-22.8" transform="matrix(1 0 0 -1 1356.3186 1583.9012)" style="overflow:visible;"/>
<use xlink:href="#Star_-_Orange"  width="48" height="45.7" id="XMLID_3_" x="-24" y="-22.8" transform="matrix(1 0 0 -1 1298.4702 1585.0417)" style="overflow:visible;"/>
<use xlink:href="#Star_-_Orange"  width="48" height="45.7" x="-24" y="-22.8" transform="matrix(1 0 0 -1 1238.3505 1587.452)" style="overflow:visible;"/>
<use xlink:href="#Star_-_Orange"  width="48" height="45.7" x="-24" y="-22.8" transform="matrix(1 0 0 -1 1182.8867 1583.4265)" style="overflow:visible;"/>
<use xlink:href="#Star_-_Orange"  width="48" height="45.7" x="-24" y="-22.8" transform="matrix(1 0 0 -1 690.5173 1613.7062)" style="overflow:visible;"/>
<use xlink:href="#Star_-_Orange"  width="48" height="45.7" x="-24" y="-22.8" transform="matrix(1 0 0 -1 912.4809 1619.3329)" style="overflow:visible;"/>
<use xlink:href="#Star_-_Orange"  width="48" height="45.7" x="-24" y="-22.8" transform="matrix(1 0 0 -1 859.0249 1619.3798)" style="overflow:visible;"/>
<use xlink:href="#Star_-_Orange"  width="48" height="45.7" x="-24" y="-22.8" transform="matrix(1 0 0 -1 804.4931 1616.4558)" style="overflow:visible;"/>
<use xlink:href="#Star_-_Orange"  width="48" height="45.7" x="-24" y="-22.8" transform="matrix(1 0 0 -1 747.1353 1616.3329)" style="overflow:visible;"/>
<use xlink:href="#Star_-_Orange"  width="48" height="45.7" x="-24" y="-22.8" transform="matrix(1 0 0 -1 2338.4111 1607.1766)" style="overflow:visible;"/>
<use xlink:href="#Star_-_Orange"  width="48" height="45.7" x="-24" y="-22.8" transform="matrix(1 0 0 -1 2289.4111 1607.4775)" style="overflow:visible;"/>
<use xlink:href="#Star_-_Orange"  width="48" height="45.7" x="-24" y="-22.8" transform="matrix(1 0 0 -1 2186.0869 1607.4775)" style="overflow:visible;"/>
<use xlink:href="#Star_-_Orange"  width="48" height="45.7" x="-24" y="-22.8" transform="matrix(1 0 0 -1 2236.0078 1606.7274)" style="overflow:visible;"/>
<use xlink:href="#Star_-_Orange"  width="48" height="45.7" x="-24" y="-22.8" transform="matrix(1 0 0 -1 2128.5725 1606.2527)" style="overflow:visible;"/>
<use xlink:href="#Star_-_Orange"  width="48" height="45.7" x="-24" y="-22.8" transform="matrix(1 0 0 -1 2606.2048 1511.0933)" style="overflow:visible;"/>
<use xlink:href="#Star_-_Orange"  width="48" height="45.7" x="-24" y="-22.8" transform="matrix(1 0 0 -1 2539.8999 1511.9175)" style="overflow:visible;"/>
<use xlink:href="#Star_-_Orange"  width="48" height="45.7" x="-24" y="-22.8" transform="matrix(1 0 0 -1 2485.3682 1511.9175)" style="overflow:visible;"/>
<use xlink:href="#Star_-_Orange"  width="48" height="45.7" x="-24" y="-22.8" transform="matrix(1 0 0 -1 2430.9199 1511.9175)" style="overflow:visible;"/>
<use xlink:href="#Star_-_Orange"  width="48" height="45.7" x="-24" y="-22.8" transform="matrix(1 0 0 -1 2371.3921 1510.644)" style="overflow:visible;"/>
<g>
	<line class="st38" x1="766.8" y1="843.1" x2="417.2" y2="1211.1"/>
	<g>
		<line class="st39" x1="761.9" y1="848.4" x2="421.7" y2="1206.4"/>
		<g>
			<path class="st38" d="M712.7,858.3c0.4,1.6,2,2.6,3.6,2.2l44.5-11.1l-8.8,45c-0.3,1.6,0.7,3.2,2.4,3.5s3.2-0.8,3.5-2.4l9.7-49.7
				c0.2-1-0.1-2-0.9-2.8c-0.7-0.7-1.8-1-2.8-0.7l-49.1,12.2c-0.6,0.1-1.1,0.4-1.4,0.8C712.8,856.2,712.5,857.2,712.7,858.3z"/>
		</g>
		<g>
			<polygon class="st38" points="417.6,1175.1 423.6,1175.1 423.2,1204.7 452.8,1202.9 453.1,1208.9 417.2,1211.1 			"/>
		</g>
	</g>
</g>
<text transform="matrix(0.6835 -0.73 0.73 0.6835 508.0497 1103.489)" class="st33 st36">Deal</text>
<path class="st24" d="M662.7,1366l-34.5-5.7c-3.8-0.6-6.6-0.4-8.4,0.6c-1.7,1.1-3.2,3.5-4.3,7.2c-5.1,16-8.2,26.3-9.5,30.9
	c-0.1,0.4-0.6,1.9-1.5,4.4c-0.7,2.1-1,3.4-1.1,4c-1,6,0.8,9.4,5.5,10.1c2.2,0.4,5.5,0.2,9.8-0.5c4.3-0.7,7.5-0.9,9.8-0.5
	c11.8,2,16.5,9.4,14.4,22.4c-1,5.9-3.5,10.5-7.5,13.8c-4,3.3-9,4.5-14.9,3.5c-5.1-0.8-9.8-3.4-14.3-7.8c-4.5-4.3-7.6-6.7-9.3-6.9
	c-2.2-0.4-4.2,0.2-5.9,1.7c-1.7,1.5-2.7,3.3-3.1,5.6c-0.4,2.6,0.2,5.4,1.9,8.3c2.6,4.4,6.7,8.2,12.3,11.6c5.1,3,10.4,5,15.9,5.9
	c8,1.3,15.6,0.4,22.8-2.7c7.2-3.1,12.9-8.1,17.2-14.9c2.8-4.5,4.8-10,5.8-16.4c1.6-9.7,0.1-18.5-4.5-26.2
	c-4.8-8.2-12-13.1-21.6-14.7c-4-0.7-8.2-0.6-12.7,0.2l6.7-21.4l28.7,4.8c7.1,1.2,11.1-1.1,12.1-6.8
	C673.1,1370.8,670,1367.2,662.7,1366z"/>
<use xlink:href="#Star_-_Orange"  width="48" height="45.7" x="-24" y="-22.8" transform="matrix(1 0 0 -1 52.9976 1545.5623)" style="overflow:visible;"/>
</svg>
